/* XPM */
static char *left_arrow.png[] = {
/* columns rows colors chars-per-pixel */
"41 21 36 1",
"  c black",
". c #0A0303",
"X c gray6",
"o c gray9",
"O c gray19",
"+ c #393939",
"@ c #4F1414",
"# c #501414",
"$ c #511515",
"% c #521515",
"& c #561616",
"* c #581616",
"= c #5F1818",
"- c #641919",
"; c #731D1D",
": c #414141",
"> c gray26",
", c gray39",
"< c gray44",
"1 c #7E7E7E",
"2 c #1313E8",
"3 c #822121",
"4 c #83233A",
"5 c #8E8E8E",
"6 c #CACACA",
"7 c #CECECE",
"8 c gray88",
"9 c #E6E6E6",
"0 c gray94",
"q c gray95",
"w c #F8F8F8",
"e c gray98",
"r c #FBFBFB",
"t c gray99",
"y c #FDFDFD",
"u c gray100",
/* pixels */
"uuu9<O:                           :O<9uuu",
"ur1X56uuuuuuuuuuuuuuuuuuuuuuuuuuuuu65X1ru",
"u1+0uuuuuuuuuuuuuuuuuuuuuuuuuuuuuuuuu0+1u",
"7o9uuuuuuuuuuuuuuuuuuuuuuuuuuuuuuuuuuu9o7",
",5uuuuuuuuuuuuuuuuuuuuuuuuuuu  uuuuuuuu5,",
"O6uuuuuuuuuuuuuuuuuuuuuuuuu 22 uuuuuuuu6O",
":ruuuuuuuuuuuuuuuuuuuuu 222222 uuuuuuuur:",
" uuuuuuuuuuuuuuuuuu 2222222222 uuuuuuuuu ",
" uuuuuuuuuuuuuu 22222222222222 uuuuuuuuu ",
" uuuuuuuuuu 222222222222222222 uuuuuuuuu ",
" uuuuuuu 222222222222222222222 uuuuuuuuu ",
" uuuuuuuuuu 222222222222222222 uuuuuuuuu ",
" uuuuuuuuuuuuuu 22222222222222 uuuuuuuuu ",
" uuuuuuuuuuuuuuuuuu 2322222222 uuuuuuuuu ",
":ruuuuuuuuuuuuuuuuuuuuu 222222 uuuuuuuur:",
"O6uuuuuuuuuuuuuuuuuuuuuuuuu 22 uuuuuuuu6O",
",5uuuuuuuuuuuuuuuuuuuuuuuuuuu  uuuuuuuu5,",
"7o9uuuuuuuuuuuuuuuuuuuuuuuuuuuuuuuuuuu9o7",
"u1+0uuuuuuuuuuuuuuuuuuuuuuuuuuuuuuuuu0+1u",
"ur1X56uuuuuuuuuuuuuuuuuuuuuuuuuuuuu65X1ru",
"uuu9<O:                           :O<9uuu"
};
