/* XPM */
static char *zoom_in.png[] = {
/* columns rows colors chars-per-pixel */
"41 21 23 1",
"  c black",
". c gray6",
"X c gray9",
"o c gray19",
"O c #393939",
"+ c #414141",
"@ c gray26",
"# c gray39",
"$ c gray44",
"% c #7E7E7E",
"& c #1313E8",
"* c #BB5F5F",
"= c #8E8E8E",
"- c #D29494",
"; c #CACACA",
": c #CECECE",
"> c #E9CACA",
", c #E6E6E6",
"< c gray94",
"1 c gray98",
"2 c #FBFBFB",
"3 c gray99",
"4 c gray100",
/* pixels */
"444,$o+                           +o$,444",
"42%.=;44444444444444444444444444444;=.%24",
"4%O<444444444444444444444444444444444<O%4",
":X,44444444444444444444444444444444444,X:",
"#=4444444444444444444444444444444444444=#",
"o;444444444444444444&444444444444444444;o",
"+2444444444444444444&4444444444444444442+",
" 4444444444444444444&4444444444444444444 ",
" 4444444444444444444&4444444444444444444 ",
" 4444444444444444444&4444444444444444444 ",
" 444444444444&&&&&&&&&&&&&&&444444444444 ",
" 4444444444444444444&4444444444444444444 ",
" 4444444444444444444&4444444444444444444 ",
" 4444444444444444444&4444444444444444444 ",
"+2444444444444444444&4444444444444444442+",
"o;444444444444444444&444444444444444444;o",
"#=4444444444444444444444444444444444444=#",
":X,44444444444444444444444444444444444,X:",
"4%O<444444444444444444444444444444444<O%4",
"42%.=;44444444444444444444444444444;=.%24",
"444,$o+                           +o$,444"
};
