/* XPM */
static char *zoom_out.png[] = {
/* columns rows colors chars-per-pixel */
"41 21 22 1",
"  c black",
". c gray6",
"X c gray9",
"o c gray19",
"O c #393939",
"+ c #414141",
"@ c gray26",
"# c gray39",
"$ c gray44",
"% c #7E7E7E",
"& c #1313E8",
"* c #8E8E8E",
"= c #D29494",
"- c #CACACA",
"; c #CECECE",
": c #E9CACA",
"> c #E6E6E6",
", c gray94",
"< c gray98",
"1 c #FBFBFB",
"2 c gray99",
"3 c gray100",
/* pixels */
"333>$o+                           +o$>333",
"31%.*-33333333333333333333333333333-*.%13",
"3%O,333333333333333333333333333333333,O%3",
";X>33333333333333333333333333333333333>X;",
"#*3333333333333333333333333333333333333*#",
"o-3333333333333333333333333333333333333-o",
"+133333333333333333333333333333333333331+",
" 333333333333333333333333333333333333333 ",
" 333333333333333333333333333333333333333 ",
" 3333333333&&&&&&&&&&&&&&&&&&&3333333333 ",
" 3333333333&&&&&&&&&&&&&&&&&&&3333333333 ",
" 3333333333&&&&&&&&&&&&&&&&&&&3333333333 ",
" 333333333333333333333333333333333333333 ",
" 333333333333333333333333333333333333333 ",
"+133333333333333333333333333333333333331+",
"o-3333333333333333333333333333333333333-o",
"#*3333333333333333333333333333333333333*#",
";X>33333333333333333333333333333333333>X;",
"3%O,333333333333333333333333333333333,O%3",
"31%.*-33333333333333333333333333333-*.%13",
"333>$o+                           +o$>333"
};
